<svg width="385" height="176" xmlns="http://www.w3.org/2000/svg">
  <defs>
    <linearGradient id="lgrad" y1="100%" y2="0%" >
<stop offset="0%" style="stop-color:rgb(157,70,230);stop-opacity:1" />
<stop offset="100%" style="stop-color:rgb(97,200,255);stop-opacity:1" />
    </linearGradient>
  </defs>
  <g>
    <rect fill="url(#lgrad)" x="5.000001" y="13.000006" width="375" height="150" transform="rotate(-4 192.50000000000014,88.00000762939452)" />
    <path fill="#ffffff" d="m79.200003,52.59966l16.1,0l-30.3,70l-16,0l-30.2,-70l17.5,0l21.3,50l21.6,-50zm287,70l-17.7,0l-11.8,-16.5l-12.2,16.5l-17,0l20.7,-27.1l-20,-26.7l17.5,0l11.4,15.7l11.7,-15.7l16.6,0l-20,26.3l20.8,27.5zm-212.3,-22.5l-40.7,0q1.1,5 5.2,7.9a15.411,15.411 0 0 0 5.906,2.492a21.539,21.539 0 0 0 4.294,0.408a24.066,24.066 0 0 0 3.846,-0.293a18.051,18.051 0 0 0 3.604,-0.957q3.25,-1.25 6.05,-3.95l8.3,9q-7.433,8.509 -21.562,8.696a48.235,48.235 0 0 1 -0.638,0.004q-9.1,0 -16.1,-3.55q-7,-3.55 -10.8,-9.85a26.625,26.625 0 0 1 -3.74,-12.311a32.401,32.401 0 0 1 -0.06,-1.989a28.604,28.604 0 0 1 1.615,-9.701a26.419,26.419 0 0 1 2.135,-4.549q3.75,-6.35 10.3,-9.9a29.628,29.628 0 0 1 12.403,-3.48a35.551,35.551 0 0 1 2.247,-0.07a31.66,31.66 0 0 1 9.289,1.328a28.204,28.204 0 0 1 5.011,2.072q6.4,3.4 10.05,9.75a27.345,27.345 0 0 1 3.353,10.126a35.01,35.01 0 0 1 0.297,4.624a3.074,3.074 0 0 1 -0.005,0.131q-0.03,0.614 -0.262,3.64a1232.566,1232.566 0 0 1 -0.033,0.429zm149.7,0l-40.7,0q1.1,5 5.2,7.9a15.411,15.411 0 0 0 5.906,2.492a21.539,21.539 0 0 0 4.294,0.408a24.066,24.066 0 0 0 3.846,-0.293a18.051,18.051 0 0 0 3.604,-0.957q3.25,-1.25 6.05,-3.95l8.3,9q-7.433,8.509 -21.562,8.696a48.235,48.235 0 0 1 -0.638,0.004q-9.1,0 -16.1,-3.55q-7,-3.55 -10.8,-9.85a26.625,26.625 0 0 1 -3.74,-12.311a32.401,32.401 0 0 1 -0.06,-1.989a28.604,28.604 0 0 1 1.615,-9.701a26.419,26.419 0 0 1 2.135,-4.549q3.75,-6.35 10.3,-9.9a29.628,29.628 0 0 1 12.403,-3.48a35.551,35.551 0 0 1 2.247,-0.07a31.66,31.66 0 0 1 9.289,1.328a28.204,28.204 0 0 1 5.011,2.072q6.4,3.4 10.05,9.75a27.345,27.345 0 0 1 3.353,10.126a35.01,35.01 0 0 1 0.297,4.624a3.074,3.074 0 0 1 -0.005,0.131q-0.03,0.614 -0.262,3.64a1232.566,1232.566 0 0 1 -0.033,0.429zm-65.4,8.9l4.2,11a14.169,14.169 0 0 1 -2.92,1.644a19.021,19.021 0 0 1 -2.73,0.906a28.185,28.185 0 0 1 -6.13,0.837a31.655,31.655 0 0 1 -0.92,0.013a30.235,30.235 0 0 1 -5.832,-0.528q-3.432,-0.675 -6.096,-2.214a15.975,15.975 0 0 1 -2.922,-2.158q-5.25,-4.9 -5.25,-14.4l0,-22.1l-8.3,0l0,-12l8.3,0l0,-13.1l15.6,0l0,13.1l13.4,0l0,12l-13.4,0l0,21.9a10.606,10.606 0 0 0 0.188,2.064q0.242,1.215 0.791,2.155a5.618,5.618 0 0 0 0.771,1.031a5.696,5.696 0 0 0 2.837,1.611q0.903,0.224 1.97,0.238a10.904,10.904 0 0 0 0.143,0.001a11.385,11.385 0 0 0 3.221,-0.438a9.306,9.306 0 0 0 3.079,-1.562zm-40.2,-41l0,14.4a157.355,157.355 0 0 0 -1.056,-0.078q-1.741,-0.122 -2.444,-0.122q-6.7,0 -10.5,3.75q-3.186,3.144 -3.701,8.925a26.236,26.236 0 0 0 -0.099,2.325l0,25.4l-15.6,0l0,-53.8l14.9,0l0,7.1a17.126,17.126 0 0 1 6.677,-5.508a20.596,20.596 0 0 1 0.873,-0.392q4.75,-2 10.95,-2zm-85,23l26.5,0a14.32,14.32 0 0 0 -1.398,-4.395a12.281,12.281 0 0 0 -3.002,-3.755a12.805,12.805 0 0 0 -7.369,-2.99a16.655,16.655 0 0 0 -1.431,-0.06a15.477,15.477 0 0 0 -4.383,0.595a12.478,12.478 0 0 0 -4.517,2.405a12.29,12.29 0 0 0 -4.022,6.402a16.378,16.378 0 0 0 -0.378,1.798zm149.7,0l26.5,0a14.32,14.32 0 0 0 -1.398,-4.395a12.281,12.281 0 0 0 -3.002,-3.755a12.805,12.805 0 0 0 -7.369,-2.99a16.655,16.655 0 0 0 -1.431,-0.06a15.477,15.477 0 0 0 -4.383,0.595a12.478,12.478 0 0 0 -4.517,2.405a12.29,12.29 0 0 0 -4.022,6.402a16.378,16.378 0 0 0 -0.378,1.798z" />
  </g>
</svg>